# xmcd
#
# Track frame offsets:
# 150
# 19634
# 36355
# 54979
# 70082
# 93037
# 112005
# 132480
# 151854
# 170822
# 189969
# 209237
# 224348
# 240054
# 261544
# 281259
# 298400
# 312445
# 329697
#
# Disc length: 4626 seconds
#
# Revision: 0
# Processed by: cddbd v1.4PL0 Copyright (c) Steve Scherf et al.
# Submitted via: Audion 3.0.2 (http://www.panic.com/audion/)
#
DISCID=24121013
DTITLE=A-HA - LIFELINES  Ready to Buy?Sign in to turn on 1-Click ordering.Used and new from $13.99Have one to sell?Don't have one?We'll set one up for you.Lifelines
DYEAR=1900
DGENRE=
TTITLE0=Lifelines
TTITLE1=You Wanted More
TTITLE2=Forever Not Yours
TTITLE3=Theres A Reason For It
TTITLE4=Time And Again
TTITLE5=Did Anyone Approach You
TTITLE6=Afternoon High
TTITLE7=Oranges On Appletrees
TTITLE8=A Little Bit
TTITLE9=Less Than Pure
TTITLE10=Turn The Lights Down
TTITLE11=Cannot Hide
TTITLE12=White Canvas
TTITLE13=Dragonfly
TTITLE14=Solace
TTITLE15=recc-1
TTITLE16=recc-2
TTITLE17=recc-3
TTITLE18=recc-4
EXTD=
EXTT0=
EXTT1=
EXTT2=
EXTT3=
EXTT4=
EXTT5=
EXTT6=
EXTT7=
EXTT8=
EXTT9=
EXTT10=
EXTT11=
EXTT12=
EXTT13=
EXTT14=
EXTT15=
EXTT16=
EXTT17=
EXTT18=
PLAYORDER=
